<?xml version="1.0" standalone="no"?>
<!DOCTYPE svg PUBLIC "-//W3C//DTD SVG 20010904//EN"
 "http://www.w3.org/TR/2001/REC-SVG-20010904/DTD/svg10.dtd">
<svg version="1.0" xmlns="http://www.w3.org/2000/svg"
 width="512.000000pt" height="512.000000pt" viewBox="0 0 512.000000 512.000000"
 preserveAspectRatio="xMidYMid meet">
<metadata>
Created by potrace 1.16, written by Peter Selinger 2001-2019
</metadata>
<g transform="translate(0.000000,512.000000) scale(0.100000,-0.100000)"
fill="#000000" stroke="none">
<path d="M187 4932 c-147 -147 -188 -194 -185 -211 2 -18 40 15 213 189 175
175 206 210 185 210 -19 0 -69 -44 -213 -188z"/>
<path d="M287 4832 c-227 -227 -288 -294 -285 -311 2 -17 59 35 313 289 255
255 305 310 285 310 -20 0 -89 -64 -313 -288z"/>
<path d="M387 4732 c-307 -307 -388 -393 -385 -411 2 -17 79 55 413 389 335
335 405 410 385 410 -20 0 -109 -84 -413 -388z"/>
<path d="M487 4632 c-388 -388 -488 -493 -485 -511 2 -17 99 74 513 489 415
415 505 510 485 510 -20 0 -129 -104 -513 -488z"/>
<path d="M587 4532 c-468 -468 -588 -593 -585 -611 2 -17 118 94 613 589 495
495 605 610 585 610 -20 0 -149 -124 -613 -588z"/>
<path d="M687 4432 c-548 -548 -688 -693 -685 -711 2 -17 138 114 713 689 575
575 705 710 685 710 -20 0 -169 -144 -713 -688z"/>
<path d="M787 4332 c-629 -629 -788 -793 -785 -811 2 -17 158 133 813 789 655
655 805 810 785 810 -20 0 -189 -164 -813 -788z"/>
<path d="M887 4232 c-709 -709 -888 -893 -885 -911 2 -17 177 153 913 889 735
735 905 910 885 910 -20 0 -209 -184 -913 -888z"/>
<path d="M1610 4755 l-365 -366 -175 -102 -175 -103 -3 -75 -3 -75 -444 -444
c-349 -349 -445 -450 -445 -470 0 -20 82 57 445 420 l445 445 0 -75 0 -75
-445 -445 c-349 -349 -445 -450 -445 -470 0 -20 82 57 445 420 l445 445 0 -75
0 -75 -445 -445 c-349 -349 -445 -450 -445 -470 0 -20 82 57 445 420 l445 445
0 -75 0 -75 -445 -445 c-349 -349 -445 -450 -445 -470 0 -20 82 57 445 420
l445 445 0 -75 0 -75 -445 -445 c-349 -349 -445 -450 -445 -470 0 -20 82 57
445 420 l445 445 0 -75 0 -75 -445 -445 c-349 -349 -445 -450 -445 -470 0 -20
82 57 445 420 l445 445 0 -75 0 -75 -445 -445 c-349 -349 -445 -450 -445 -470
0 -20 82 57 445 420 l445 445 0 -75 0 -75 -445 -445 c-349 -349 -445 -450
-445 -470 0 -20 82 57 445 420 l445 445 0 -75 0 -75 -445 -445 c-349 -349
-445 -450 -445 -470 0 -20 84 59 452 427 l453 452 47 -28 47 -27 -500 -500
c-392 -392 -499 -504 -499 -524 0 -20 66 41 365 340 348 347 364 362 336 305
-16 -33 -36 -87 -45 -120 -15 -59 -17 -61 -336 -380 -248 -249 -320 -326 -320
-345 0 -20 57 32 316 290 211 210 314 307 310 290 -3 -14 -6 -50 -6 -80 l0
-54 -310 -311 c-239 -240 -310 -316 -310 -335 0 -20 56 31 304 279 l304 304 4
-69 4 -69 -308 -310 c-238 -240 -308 -316 -308 -335 0 -20 56 31 309 284 l308
308 8 -67 7 -68 -316 -316 c-245 -245 -316 -322 -316 -341 0 -20 58 33 319
294 l319 319 9 -64 10 -64 -329 -330 c-254 -256 -328 -336 -328 -355 0 -20 61
36 333 308 l333 333 12 -63 12 -63 -345 -345 c-269 -269 -345 -351 -345 -370
0 -20 64 39 350 325 229 229 351 344 354 334 3 -7 10 -34 16 -58 l12 -44 -339
-339 c-277 -277 -333 -338 -313 -338 20 0 95 70 340 315 173 173 318 315 321
315 3 0 11 -18 18 -40 6 -21 16 -42 22 -46 7 -4 -101 -119 -257 -275 -222
-222 -264 -269 -244 -269 36 0 880 844 880 880 0 21 -27 -2 -165 -140 -90 -90
-166 -162 -168 -160 -2 3 -11 28 -19 55 l-16 50 184 185 c139 140 184 191 184
210 0 21 -32 -7 -189 -164 l-189 -189 -12 44 c-6 24 -13 51 -16 58 -3 10 64
84 181 201 145 145 184 190 179 204 -6 15 -41 -16 -189 -164 l-183 -183 -11
52 c-6 29 -11 57 -11 64 0 7 79 91 175 187 133 133 175 181 175 200 0 21 -29
-4 -179 -154 l-179 -179 -7 39 c-3 21 -8 50 -11 64 -4 21 21 50 171 200 133
133 175 181 175 200 0 21 -28 -3 -173 -148 -95 -95 -176 -170 -180 -166 -4 4
-7 35 -7 68 l0 61 240 240 c185 185 240 246 240 265 0 21 -42 -17 -245 -220
l-245 -245 0 75 0 75 307 307 307 307 48 -27 48 -27 -108 -109 c-102 -104
-105 -107 -57 -81 28 16 59 37 71 47 11 10 24 15 29 11 4 -5 5 -3 2 3 -3 6 16
32 42 58 48 47 49 48 84 35 31 -11 38 -10 63 8 16 11 110 67 209 123 117 68
202 124 242 161 35 32 109 93 165 135 211 159 429 361 535 496 25 32 49 58 53
58 3 0 14 -6 24 -13 16 -12 15 -15 -12 -52 -82 -112 -268 -296 -429 -426 -90
-72 -108 -89 -73 -67 14 8 165 95 335 193 171 97 323 191 338 207 17 18 34 27
44 24 8 -3 27 1 43 10 25 15 30 15 50 1 21 -15 19 -17 -97 -85 -160 -95 -1373
-795 -1605 -926 l-107 -61 -1 -888 0 -888 31 17 c17 8 70 38 118 66 47 28 102
60 121 71 22 13 -14 -30 -100 -117 -114 -115 -131 -136 -110 -136 19 0 68 43
200 174 174 174 176 175 335 266 88 51 165 95 170 97 6 3 -111 -116 -260 -266
-222 -223 -265 -271 -245 -271 19 0 94 70 335 310 l310 310 175 100 175 101
-410 -411 c-335 -335 -405 -410 -385 -410 20 0 121 96 470 445 l445 446 150
86 c83 47 161 93 175 101 14 8 -220 -231 -520 -531 -443 -445 -540 -547 -520
-547 20 0 148 123 605 580 l580 581 165 96 c91 53 170 98 175 101 6 2 -296
-302 -670 -677 -551 -552 -675 -681 -655 -681 20 0 176 151 745 720 l720 721
140 81 c77 44 156 90 175 101 19 11 -334 -350 -785 -802 -662 -663 -815 -821
-795 -821 20 0 206 181 890 864 l865 863 145 83 c80 46 156 90 170 98 14 9
-407 -417 -935 -946 -775 -777 -955 -962 -935 -962 37 0 2640 2603 2640 2640
0 20 -56 -31 -310 -285 l-310 -310 0 75 0 75 310 310 c241 241 310 315 310
335 0 20 -55 -30 -310 -285 l-310 -310 0 75 0 75 310 310 c241 241 310 315
310 335 0 20 -55 -30 -310 -285 l-310 -310 0 75 0 75 310 310 c241 241 310
315 310 335 0 20 -55 -30 -310 -285 l-310 -310 0 75 0 75 310 310 c241 241
310 315 310 335 0 20 -55 -30 -310 -285 l-310 -310 0 75 0 74 310 311 c239
240 310 316 310 335 0 20 -56 -31 -305 -280 l-305 -305 0 75 0 75 305 305
c237 237 305 310 305 330 0 20 -54 -29 -305 -280 l-305 -305 0 75 0 75 305
305 c237 237 305 310 305 330 0 20 -54 -29 -305 -280 l-305 -305 0 75 0 75
305 305 c237 237 305 310 305 330 0 20 -54 -29 -305 -280 l-305 -305 0 63 c0
43 -4 62 -12 62 -7 0 130 143 305 318 246 246 317 323 317 342 0 20 -60 -35
-332 -306 l-333 -331 -42 24 c-24 14 -43 28 -43 31 0 4 169 176 375 382 293
293 375 380 375 400 0 20 -72 -47 -393 -368 -215 -215 -396 -392 -400 -392 -4
0 -26 12 -49 26 l-41 26 442 442 c345 345 441 446 441 466 0 20 -86 -61 -458
-433 l-458 -458 -48 27 -48 27 506 506 c397 397 506 511 506 531 0 20 -98 -73
-522 -496 l-523 -521 -37 21 c-21 12 -41 25 -45 29 -4 4 227 242 512 527 422
422 515 520 495 520 -20 0 -135 -110 -537 -512 l-512 -512 -43 23 c-24 13 -45
26 -48 28 -2 2 214 222 480 488 394 394 480 485 460 485 -20 0 -127 -103 -500
-475 l-476 -476 -48 27 -48 27 448 448 c366 366 444 449 424 449 -20 0 -120
-94 -464 -439 l-439 -439 -48 26 -48 27 412 413 c335 335 407 412 387 412 -19
0 -113 -88 -427 -402 l-402 -402 -43 24 c-24 12 -45 25 -48 27 -2 2 164 172
370 378 306 306 370 375 350 375 -19 0 -106 -81 -391 -366 l-366 -366 -48 27
-47 28 339 339 c277 277 333 338 313 338 -20 0 -98 -72 -354 -329 l-329 -329
-48 26 -48 27 302 303 c247 247 297 302 277 302 -19 0 -91 -66 -317 -292
l-293 -293 -45 25 c-25 13 -45 27 -45 30 0 3 118 123 262 267 216 216 258 263
238 263 -19 0 -84 -59 -281 -256 l-256 -256 -48 27 -47 28 228 228 c190 190
225 229 204 229 -19 0 -76 -51 -245 -220 l-219 -219 -48 27 -48 27 192 192
c160 160 189 193 168 193 -19 0 -69 -44 -207 -182 l-183 -183 -45 25 c-25 14
-45 27 -45 30 0 2 69 73 152 157 128 128 149 153 128 153 -19 0 -62 -37 -171
-146 l-147 -147 -47 28 -47 27 118 119 c102 102 115 119 94 119 -19 0 -54 -28
-135 -110 l-109 -109 -48 27 -48 27 82 82 c72 72 79 83 58 83 -17 0 -47 -22
-97 -72 l-72 -72 -50 25 -49 24 46 48 c43 44 45 47 22 47 -18 0 -52 -27 -120
-94 -80 -79 -118 -106 -240 -176 -80 -46 -156 -90 -170 -98 -14 -9 60 71 165
176 159 161 186 192 165 192 -19 0 -77 -52 -250 -226 -240 -240 -215 -221
-500 -386 l-85 -50 330 331 c271 272 325 331 305 331 -20 0 -105 -80 -390
-365z m1528 -2107 c8 -8 12 -49 12 -120 0 -105 -1 -109 -24 -118 -33 -12 -65
-2 -71 24 -3 11 -4 63 -2 114 3 98 10 112 53 112 11 0 25 -5 32 -12z m-288
-668 c0 -629 0 -640 -19 -628 -15 9 -23 9 -36 -2 -14 -12 -15 -15 0 -29 13
-13 19 -13 35 -3 18 11 20 10 20 -12 0 -19 -16 -33 -92 -76 -51 -30 -176 -102
-278 -161 -102 -59 -331 -191 -510 -294 -179 -103 -382 -221 -452 -261 -70
-41 -130 -74 -133 -74 -3 0 -5 301 -5 669 l0 669 103 60 c56 33 137 80 179
104 42 23 245 140 450 260 548 318 722 417 731 418 4 0 7 -288 7 -640z m-1730
291 c0 -3 -88 -94 -196 -201 -205 -205 -213 -208 -126 -57 39 67 142 180 221
243 47 37 57 41 77 32 13 -6 24 -14 24 -17z m86 -47 c24 -14 44 -27 44 -28 0
0 -129 -129 -286 -286 l-286 -285 6 50 c17 124 3 104 244 348 125 125 228 227
230 227 2 0 23 -12 48 -26z m1932 -516 c8 -8 12 -49 12 -120 0 -106 0 -109
-25 -118 -26 -10 -55 -4 -67 14 -4 6 -8 57 -8 113 0 87 3 104 18 112 23 14 55
14 70 -1z"/>
<path d="M3885 1230 c-991 -991 -1225 -1230 -1205 -1230 37 0 2443 2407 2438
2439 -2 17 -240 -216 -1233 -1209z"/>
<path d="M3985 1130 c-911 -911 -1125 -1130 -1105 -1130 37 0 2243 2207 2238
2239 -2 17 -221 -196 -1133 -1109z"/>
<path d="M4085 1030 c-831 -831 -1025 -1030 -1005 -1030 37 0 2043 2007 2038
2039 -2 17 -201 -177 -1033 -1009z"/>
<path d="M4185 930 c-751 -751 -925 -930 -905 -930 37 0 1843 1807 1838 1839
-2 17 -181 -157 -933 -909z"/>
<path d="M4285 830 c-671 -671 -825 -830 -805 -830 37 0 1643 1607 1638 1639
-2 17 -162 -137 -833 -809z"/>
<path d="M4385 730 c-591 -591 -725 -730 -705 -730 37 0 1443 1407 1438 1439
-2 17 -142 -118 -733 -709z"/>
<path d="M4485 630 c-511 -511 -625 -630 -605 -630 37 0 1243 1207 1238 1239
-2 17 -122 -98 -633 -609z"/>
<path d="M4585 530 c-431 -431 -525 -530 -505 -530 37 0 1043 1007 1038 1039
-2 17 -103 -78 -533 -509z"/>
<path d="M4685 430 c-351 -351 -425 -430 -405 -430 37 0 843 807 838 839 -2
17 -83 -59 -433 -409z"/>
<path d="M805 350 c-287 -287 -345 -350 -325 -350 37 0 683 647 678 679 -2 17
-67 -43 -353 -329z"/>
<path d="M4785 330 c-271 -271 -325 -330 -305 -330 37 0 643 607 638 639 -2
17 -63 -39 -333 -309z"/>
<path d="M905 250 c-207 -207 -246 -250 -225 -250 37 0 483 447 478 479 -2 18
-47 -23 -253 -229z"/>
<path d="M4885 230 c-191 -191 -226 -230 -205 -230 37 0 443 407 438 439 -2
18 -44 -19 -233 -209z"/>
</g>
</svg>
